<svg width="100" height="34" viewBox="0 0 100 34" fill="none" xmlns="http://www.w3.org/2000/svg">
<path d="M16.5161 0.758057C25.2192 0.758057 32.2739 7.81277 32.2739 16.5159C32.2739 25.219 25.2192 32.2737 16.5161 32.2737C7.81301 32.2737 0.758301 25.219 0.758301 16.5159C0.758301 7.81277 7.81301 0.758057 16.5161 0.758057Z" fill="#1B85F3" stroke="#D1E6FF" stroke-width="1.51589"/>
<path fill-rule="evenodd" clip-rule="evenodd" d="M10.1815 21.5455C9.733 21.271 9.4585 20.7835 9.4585 20.2585V17.3275C9.4585 16.9795 9.742 16.6975 10.09 16.699C10.201 16.699 10.3105 16.729 10.4065 16.7845L17.02 20.641C17.407 20.866 17.6455 21.28 17.6455 21.7285V24.7645C17.647 25.1815 17.3095 25.5205 16.8925 25.5205C16.753 25.5205 16.615 25.4815 16.4965 25.4095L10.1815 21.5455ZM20.0395 15.982C20.4265 16.207 20.6635 16.6225 20.665 17.0695V23.2315C20.665 23.413 20.5675 23.581 20.4085 23.6695L18.961 24.484C18.943 24.4945 18.9235 24.502 18.9025 24.508V21.0865C18.9025 20.644 18.67 20.233 18.289 20.005L12.481 16.531V12.6685C12.481 12.3205 12.7645 12.0385 13.1125 12.04C13.2235 12.04 13.333 12.07 13.429 12.1255L20.0395 15.982ZM22.9345 11.431C23.323 11.656 23.5615 12.0715 23.5615 12.52V21.52C23.56 21.7045 23.458 21.874 23.296 21.9625L21.9235 22.7035V16.438C21.9235 15.9955 21.691 15.586 21.313 15.358L15.376 11.797V8.13403C15.376 8.02303 15.406 7.91353 15.46 7.81753C15.6355 7.51753 16.021 7.41553 16.321 7.58953L22.9345 11.431Z" fill="white"/>
<path d="M40.596 23.1759C40.276 23.1759 40.016 23.1025 39.816 22.9559C39.6293 22.8092 39.516 22.6159 39.476 22.3759C39.436 22.1225 39.4827 21.8425 39.616 21.5359L44.896 9.83587C45.0693 9.4492 45.276 9.17587 45.516 9.01587C45.7693 8.84253 46.056 8.75587 46.376 8.75587C46.6827 8.75587 46.956 8.84253 47.196 9.01587C47.4493 9.17587 47.6627 9.4492 47.836 9.83587L53.136 21.5359C53.2827 21.8425 53.336 22.1225 53.296 22.3759C53.256 22.6292 53.1427 22.8292 52.956 22.9759C52.7693 23.1092 52.5227 23.1759 52.216 23.1759C51.8427 23.1759 51.5493 23.0892 51.336 22.9159C51.136 22.7292 50.956 22.4492 50.796 22.0759L49.496 19.0559L50.576 19.7559H42.136L43.216 19.0559L41.936 22.0759C41.7627 22.4625 41.5827 22.7425 41.396 22.9159C41.2093 23.0892 40.9427 23.1759 40.596 23.1759ZM46.336 11.6959L43.536 18.3559L43.016 17.7159H49.696L49.196 18.3559L46.376 11.6959H46.336ZM56.3388 26.7759C55.9388 26.7759 55.6322 26.6692 55.4188 26.4559C55.2055 26.2425 55.0988 25.9292 55.0988 25.5159V14.3359C55.0988 13.9225 55.2055 13.6092 55.4188 13.3959C55.6322 13.1825 55.9322 13.0759 56.3188 13.0759C56.7188 13.0759 57.0255 13.1825 57.2388 13.3959C57.4522 13.6092 57.5588 13.9225 57.5588 14.3359V15.8959L57.3388 15.2959C57.5388 14.6159 57.9455 14.0692 58.5588 13.6559C59.1855 13.2425 59.9122 13.0359 60.7388 13.0359C61.5922 13.0359 62.3388 13.2425 62.9788 13.6559C63.6322 14.0692 64.1388 14.6559 64.4988 15.4159C64.8588 16.1625 65.0388 17.0625 65.0388 18.1159C65.0388 19.1559 64.8588 20.0625 64.4988 20.8359C64.1388 21.5959 63.6388 22.1825 62.9988 22.5959C62.3588 23.0092 61.6055 23.2159 60.7388 23.2159C59.9255 23.2159 59.2122 23.0159 58.5988 22.6159C57.9855 22.2025 57.5722 21.6692 57.3588 21.0159H57.5988V25.5159C57.5988 25.9292 57.4855 26.2425 57.2588 26.4559C57.0455 26.6692 56.7388 26.7759 56.3388 26.7759ZM60.0388 21.3159C60.5322 21.3159 60.9655 21.1959 61.3388 20.9559C61.7122 20.7159 61.9988 20.3625 62.1988 19.8959C62.4122 19.4159 62.5188 18.8225 62.5188 18.1159C62.5188 17.0492 62.2922 16.2559 61.8388 15.7359C61.3855 15.2025 60.7855 14.9359 60.0388 14.9359C59.5455 14.9359 59.1122 15.0559 58.7388 15.2959C58.3655 15.5225 58.0722 15.8759 57.8588 16.3559C57.6588 16.8225 57.5588 17.4092 57.5588 18.1159C57.5588 19.1692 57.7855 19.9692 58.2388 20.5159C58.6922 21.0492 59.2922 21.3159 60.0388 21.3159ZM68.331 26.7759C67.931 26.7759 67.6243 26.6692 67.411 26.4559C67.1977 26.2425 67.091 25.9292 67.091 25.5159V14.3359C67.091 13.9225 67.1977 13.6092 67.411 13.3959C67.6243 13.1825 67.9243 13.0759 68.311 13.0759C68.711 13.0759 69.0177 13.1825 69.231 13.3959C69.4443 13.6092 69.551 13.9225 69.551 14.3359V15.8959L69.331 15.2959C69.531 14.6159 69.9377 14.0692 70.551 13.6559C71.1777 13.2425 71.9043 13.0359 72.731 13.0359C73.5843 13.0359 74.331 13.2425 74.971 13.6559C75.6243 14.0692 76.131 14.6559 76.491 15.4159C76.851 16.1625 77.031 17.0625 77.031 18.1159C77.031 19.1559 76.851 20.0625 76.491 20.8359C76.131 21.5959 75.631 22.1825 74.991 22.5959C74.351 23.0092 73.5977 23.2159 72.731 23.2159C71.9177 23.2159 71.2043 23.0159 70.591 22.6159C69.9777 22.2025 69.5643 21.6692 69.351 21.0159H69.591V25.5159C69.591 25.9292 69.4777 26.2425 69.251 26.4559C69.0377 26.6692 68.731 26.7759 68.331 26.7759ZM72.031 21.3159C72.5243 21.3159 72.9577 21.1959 73.331 20.9559C73.7043 20.7159 73.991 20.3625 74.191 19.8959C74.4043 19.4159 74.511 18.8225 74.511 18.1159C74.511 17.0492 74.2843 16.2559 73.831 15.7359C73.3777 15.2025 72.7777 14.9359 72.031 14.9359C71.5377 14.9359 71.1043 15.0559 70.731 15.2959C70.3577 15.5225 70.0643 15.8759 69.851 16.3559C69.651 16.8225 69.551 17.4092 69.551 18.1159C69.551 19.1692 69.7777 19.9692 70.231 20.5159C70.6843 21.0492 71.2843 21.3159 72.031 21.3159ZM82.6632 23.2159C82.0899 23.2159 81.4832 23.1559 80.8432 23.0359C80.2032 22.9159 79.6299 22.7092 79.1232 22.4159C78.9099 22.2825 78.7565 22.1292 78.6632 21.9559C78.5832 21.7692 78.5499 21.5892 78.5632 21.4159C78.5899 21.2292 78.6565 21.0692 78.7632 20.9359C78.8832 20.8025 79.0299 20.7159 79.2032 20.6759C79.3899 20.6359 79.5899 20.6692 79.8032 20.7759C80.3365 21.0292 80.8365 21.2092 81.3032 21.3159C81.7699 21.4092 82.2299 21.4559 82.6832 21.4559C83.3232 21.4559 83.7965 21.3492 84.1032 21.1359C84.4232 20.9092 84.5832 20.6159 84.5832 20.2559C84.5832 19.9492 84.4765 19.7159 84.2632 19.5559C84.0632 19.3825 83.7565 19.2559 83.3432 19.1759L81.3432 18.7959C80.5165 18.6359 79.8832 18.3359 79.4432 17.8959C79.0165 17.4425 78.8032 16.8625 78.8032 16.1559C78.8032 15.5159 78.9765 14.9625 79.3232 14.4959C79.6832 14.0292 80.1765 13.6692 80.8032 13.4159C81.4299 13.1625 82.1499 13.0359 82.9632 13.0359C83.5499 13.0359 84.0965 13.1025 84.6032 13.2359C85.1232 13.3559 85.6232 13.5492 86.1032 13.8159C86.3032 13.9225 86.4365 14.0625 86.5032 14.2359C86.5832 14.4092 86.6032 14.5892 86.5632 14.7759C86.5232 14.9492 86.4432 15.1092 86.3232 15.2559C86.2032 15.3892 86.0499 15.4759 85.8632 15.5159C85.6899 15.5425 85.4899 15.5025 85.2632 15.3959C84.8499 15.1825 84.4499 15.0292 84.0632 14.9359C83.6899 14.8425 83.3299 14.7959 82.9832 14.7959C82.3299 14.7959 81.8432 14.9092 81.5232 15.1359C81.2165 15.3625 81.0632 15.6625 81.0632 16.0359C81.0632 16.3159 81.1565 16.5492 81.3432 16.7359C81.5299 16.9225 81.8165 17.0492 82.2032 17.1159L84.2032 17.4959C85.0699 17.6559 85.7232 17.9492 86.1632 18.3759C86.6165 18.8025 86.8432 19.3759 86.8432 20.0959C86.8432 21.0692 86.4632 21.8359 85.7032 22.3959C84.9432 22.9425 83.9299 23.2159 82.6632 23.2159ZM93.3088 23.2159C92.2955 23.2159 91.4155 23.0092 90.6688 22.5959C89.9222 22.1825 89.3422 21.5959 88.9288 20.8359C88.5155 20.0625 88.3088 19.1559 88.3088 18.1159C88.3088 17.3292 88.4222 16.6292 88.6488 16.0159C88.8888 15.3892 89.2288 14.8559 89.6688 14.4159C90.1088 13.9625 90.6355 13.6225 91.2488 13.3959C91.8622 13.1559 92.5488 13.0359 93.3088 13.0359C94.3222 13.0359 95.2022 13.2425 95.9488 13.6559C96.6955 14.0692 97.2755 14.6559 97.6888 15.4159C98.1022 16.1759 98.3088 17.0759 98.3088 18.1159C98.3088 18.9025 98.1888 19.6092 97.9488 20.2359C97.7222 20.8625 97.3888 21.4025 96.9488 21.8559C96.5088 22.2959 95.9822 22.6359 95.3688 22.8759C94.7555 23.1025 94.0688 23.2159 93.3088 23.2159ZM93.3088 21.3159C93.8022 21.3159 94.2355 21.1959 94.6088 20.9559C94.9822 20.7159 95.2688 20.3625 95.4688 19.8959C95.6822 19.4159 95.7888 18.8225 95.7888 18.1159C95.7888 17.0492 95.5622 16.2559 95.1088 15.7359C94.6555 15.2025 94.0555 14.9359 93.3088 14.9359C92.8155 14.9359 92.3822 15.0559 92.0088 15.2959C91.6355 15.5225 91.3422 15.8759 91.1288 16.3559C90.9288 16.8225 90.8288 17.4092 90.8288 18.1159C90.8288 19.1692 91.0555 19.9692 91.5088 20.5159C91.9622 21.0492 92.5622 21.3159 93.3088 21.3159Z" fill="#1B85F3"/>
</svg>
